<svg width="136" height="122" viewBox="0 0 136 122" fill="none" xmlns="http://www.w3.org/2000/svg">
<path d="M0 14C0 6.26801 6.26801 0 14 0H122C129.732 0 136 6.26801 136 14V108C136 115.732 129.732 122 122 122H14C6.26801 122 0 115.732 0 108V14Z" fill="white"/>
<path fill-rule="evenodd" clip-rule="evenodd" d="M122.4 0H13.6C6.12 0 0 6.1 0 13.5556V108.444C0 115.9 6.12 122 13.6 122H122.4C129.88 122 136 115.9 136 108.444V13.5556C136 6.1 129.88 0 122.4 0ZM54.4 94.8889H20.4V81.3333H54.4V94.8889ZM54.4 67.7778H20.4V54.2222H54.4V67.7778ZM54.4 40.6667H20.4V27.1111H54.4V40.6667ZM87.176 81.3333L68 62.0844L77.588 52.5278L87.176 62.1522L108.732 40.6667L118.388 50.2911L87.176 81.3333Z" fill="#03045E"/>
</svg>
